<mxfile host="Electron" modified="2023-09-14T03:52:32.620Z" agent="Mozilla/5.0 (Macintosh; Intel Mac OS X 10_15_7) AppleWebKit/537.36 (KHTML, like Gecko) draw.io/21.6.8 Chrome/114.0.5735.289 Electron/25.5.0 Safari/537.36" etag="0qdoCQsHU9Z-jFOkQoLZ" version="21.6.8" type="device">
  <diagram name="第 1 页" id="LiW5BO1t8q7PNTxOZ5Oh">
    <mxGraphModel dx="687" dy="911" grid="0" gridSize="10" guides="0" tooltips="0" connect="1" arrows="1" fold="1" page="0" pageScale="1" pageWidth="827" pageHeight="1169" math="0" shadow="0">
      <root>
        <mxCell id="0" />
        <mxCell id="1" parent="0" />
        <mxCell id="EzVN9FQ9vZb8OKMl-MdA-2" value="Host or Container" style="rounded=0;whiteSpace=wrap;html=1;strokeColor=#666666;fillColor=#f5f5f5;verticalAlign=top;dashed=1;dashPattern=12 12;fontColor=#333333;strokeWidth=1;" parent="1" vertex="1">
          <mxGeometry x="72" y="-270" width="141" height="231" as="geometry" />
        </mxCell>
        <mxCell id="rSt2R6uiLJbrqR5uj_X2-5" style="edgeStyle=orthogonalEdgeStyle;rounded=0;orthogonalLoop=1;jettySize=auto;html=1;" edge="1" parent="1" source="jmCdc3gPONvdGF64BxfQ-2" target="rSt2R6uiLJbrqR5uj_X2-1">
          <mxGeometry relative="1" as="geometry" />
        </mxCell>
        <mxCell id="rSt2R6uiLJbrqR5uj_X2-6" value="TraceData(Push）" style="edgeLabel;html=1;align=center;verticalAlign=middle;resizable=0;points=[];" vertex="1" connectable="0" parent="rSt2R6uiLJbrqR5uj_X2-5">
          <mxGeometry x="-0.2435" y="2" relative="1" as="geometry">
            <mxPoint y="-7" as="offset" />
          </mxGeometry>
        </mxCell>
        <mxCell id="jmCdc3gPONvdGF64BxfQ-2" value="OpenTelemetry SDK&lt;br&gt;（with OTPL Exporter）" style="rounded=0;whiteSpace=wrap;html=1;strokeColor=#2D7600;fillColor=#60a917;strokeWidth=0;fontColor=#ffffff;" parent="1" vertex="1">
          <mxGeometry x="78" y="-196" width="130" height="44" as="geometry" />
        </mxCell>
        <mxCell id="rSt2R6uiLJbrqR5uj_X2-39" style="edgeStyle=orthogonalEdgeStyle;rounded=0;orthogonalLoop=1;jettySize=auto;html=1;" edge="1" parent="1" source="rSt2R6uiLJbrqR5uj_X2-1" target="rSt2R6uiLJbrqR5uj_X2-3">
          <mxGeometry relative="1" as="geometry" />
        </mxCell>
        <mxCell id="rSt2R6uiLJbrqR5uj_X2-1" value="Jaeger Collector" style="rounded=0;whiteSpace=wrap;html=1;strokeColor=#2D7600;fillColor=#60a917;verticalAlign=middle;strokeWidth=1;fontColor=#ffffff;" vertex="1" parent="1">
          <mxGeometry x="244" y="-281" width="120" height="76" as="geometry" />
        </mxCell>
        <mxCell id="rSt2R6uiLJbrqR5uj_X2-48" style="edgeStyle=orthogonalEdgeStyle;rounded=0;orthogonalLoop=1;jettySize=auto;html=1;entryX=0.5;entryY=0;entryDx=0;entryDy=0;" edge="1" parent="1" source="rSt2R6uiLJbrqR5uj_X2-3" target="rSt2R6uiLJbrqR5uj_X2-45">
          <mxGeometry relative="1" as="geometry" />
        </mxCell>
        <mxCell id="rSt2R6uiLJbrqR5uj_X2-3" value="ES" style="shape=cylinder3;whiteSpace=wrap;html=1;boundedLbl=1;backgroundOutline=1;size=15;fillColor=#60a917;fontColor=#ffffff;strokeColor=#2D7600;" vertex="1" parent="1">
          <mxGeometry x="264" y="-361" width="82" height="49" as="geometry" />
        </mxCell>
        <mxCell id="rSt2R6uiLJbrqR5uj_X2-49" style="edgeStyle=orthogonalEdgeStyle;rounded=0;orthogonalLoop=1;jettySize=auto;html=1;entryX=0.003;entryY=0.614;entryDx=0;entryDy=0;entryPerimeter=0;" edge="1" parent="1" source="rSt2R6uiLJbrqR5uj_X2-15" target="rSt2R6uiLJbrqR5uj_X2-23">
          <mxGeometry relative="1" as="geometry" />
        </mxCell>
        <mxCell id="rSt2R6uiLJbrqR5uj_X2-50" value="LogData（Push）" style="edgeLabel;html=1;align=center;verticalAlign=middle;resizable=0;points=[];" vertex="1" connectable="0" parent="rSt2R6uiLJbrqR5uj_X2-49">
          <mxGeometry x="0.0958" y="1" relative="1" as="geometry">
            <mxPoint x="-2" y="-8" as="offset" />
          </mxGeometry>
        </mxCell>
        <mxCell id="rSt2R6uiLJbrqR5uj_X2-15" value="Promtail(Log Agent)" style="rounded=0;whiteSpace=wrap;html=1;strokeColor=#001DBC;fillColor=#0050ef;strokeWidth=0;fontColor=#ffffff;" vertex="1" parent="1">
          <mxGeometry x="78" y="-152" width="130" height="50" as="geometry" />
        </mxCell>
        <mxCell id="rSt2R6uiLJbrqR5uj_X2-53" style="edgeStyle=orthogonalEdgeStyle;rounded=0;orthogonalLoop=1;jettySize=auto;html=1;entryX=0.014;entryY=0.396;entryDx=0;entryDy=0;entryPerimeter=0;endArrow=none;endFill=0;startArrow=classic;startFill=1;" edge="1" parent="1" source="rSt2R6uiLJbrqR5uj_X2-23" target="rSt2R6uiLJbrqR5uj_X2-28">
          <mxGeometry relative="1" as="geometry" />
        </mxCell>
        <mxCell id="rSt2R6uiLJbrqR5uj_X2-54" value="Data query" style="edgeLabel;html=1;align=center;verticalAlign=middle;resizable=0;points=[];" vertex="1" connectable="0" parent="rSt2R6uiLJbrqR5uj_X2-53">
          <mxGeometry x="0.2441" y="1" relative="1" as="geometry">
            <mxPoint x="-11" y="-9" as="offset" />
          </mxGeometry>
        </mxCell>
        <mxCell id="rSt2R6uiLJbrqR5uj_X2-61" value="" style="edgeStyle=orthogonalEdgeStyle;rounded=0;orthogonalLoop=1;jettySize=auto;html=1;entryX=0.5;entryY=0;entryDx=0;entryDy=0;entryPerimeter=0;" edge="1" parent="1" source="rSt2R6uiLJbrqR5uj_X2-23" target="rSt2R6uiLJbrqR5uj_X2-24">
          <mxGeometry relative="1" as="geometry" />
        </mxCell>
        <mxCell id="rSt2R6uiLJbrqR5uj_X2-23" value="Loki Engine" style="rounded=0;whiteSpace=wrap;html=1;strokeColor=#001DBC;fillColor=#0050ef;verticalAlign=middle;strokeWidth=1;fontColor=#ffffff;" vertex="1" parent="1">
          <mxGeometry x="378" y="-173" width="120" height="76" as="geometry" />
        </mxCell>
        <mxCell id="rSt2R6uiLJbrqR5uj_X2-24" value="Minio" style="shape=cylinder3;whiteSpace=wrap;html=1;boundedLbl=1;backgroundOutline=1;size=14.6875;fillColor=#0050ef;fontColor=#ffffff;strokeColor=#001DBC;" vertex="1" parent="1">
          <mxGeometry x="394" y="-82" width="88" height="49" as="geometry" />
        </mxCell>
        <mxCell id="rSt2R6uiLJbrqR5uj_X2-28" value="" style="verticalLabelPosition=bottom;verticalAlign=top;html=1;shape=mxgraph.basic.plaque;dx=6;whiteSpace=wrap;fillColor=#1ba1e2;fontColor=#ffffff;strokeColor=#006EAF;" vertex="1" parent="1">
          <mxGeometry x="583" y="-288" width="100" height="385" as="geometry" />
        </mxCell>
        <mxCell id="rSt2R6uiLJbrqR5uj_X2-29" value="GrafanaUI" style="text;html=1;strokeColor=none;fillColor=none;align=center;verticalAlign=middle;whiteSpace=wrap;rounded=0;fontColor=#FFFFFF;" vertex="1" parent="1">
          <mxGeometry x="603" y="-108" width="60" height="30" as="geometry" />
        </mxCell>
        <mxCell id="rSt2R6uiLJbrqR5uj_X2-32" style="edgeStyle=orthogonalEdgeStyle;rounded=0;orthogonalLoop=1;jettySize=auto;html=1;entryX=0;entryY=0.75;entryDx=0;entryDy=0;" edge="1" parent="1" source="rSt2R6uiLJbrqR5uj_X2-30" target="rSt2R6uiLJbrqR5uj_X2-31">
          <mxGeometry relative="1" as="geometry" />
        </mxCell>
        <mxCell id="rSt2R6uiLJbrqR5uj_X2-44" value="MetricsData（Push）" style="edgeLabel;html=1;align=center;verticalAlign=middle;resizable=0;points=[];" vertex="1" connectable="0" parent="rSt2R6uiLJbrqR5uj_X2-32">
          <mxGeometry x="-0.719" y="3" relative="1" as="geometry">
            <mxPoint x="52" y="51" as="offset" />
          </mxGeometry>
        </mxCell>
        <mxCell id="rSt2R6uiLJbrqR5uj_X2-30" value="Vmagent(Metrics Agent)" style="rounded=0;whiteSpace=wrap;html=1;strokeColor=#3700CC;fillColor=#6a00ff;strokeWidth=1;fontColor=#ffffff;" vertex="1" parent="1">
          <mxGeometry x="78" y="-102" width="130" height="45" as="geometry" />
        </mxCell>
        <mxCell id="rSt2R6uiLJbrqR5uj_X2-34" value="" style="edgeStyle=orthogonalEdgeStyle;rounded=0;orthogonalLoop=1;jettySize=auto;html=1;" edge="1" parent="1" source="rSt2R6uiLJbrqR5uj_X2-31" target="rSt2R6uiLJbrqR5uj_X2-33">
          <mxGeometry relative="1" as="geometry" />
        </mxCell>
        <mxCell id="rSt2R6uiLJbrqR5uj_X2-55" style="edgeStyle=orthogonalEdgeStyle;rounded=0;orthogonalLoop=1;jettySize=auto;html=1;entryX=-0.003;entryY=0.808;entryDx=0;entryDy=0;entryPerimeter=0;startArrow=classic;startFill=1;endArrow=none;endFill=0;" edge="1" parent="1" source="rSt2R6uiLJbrqR5uj_X2-31" target="rSt2R6uiLJbrqR5uj_X2-28">
          <mxGeometry relative="1" as="geometry" />
        </mxCell>
        <mxCell id="rSt2R6uiLJbrqR5uj_X2-56" value="Data query" style="edgeLabel;html=1;align=center;verticalAlign=middle;resizable=0;points=[];" vertex="1" connectable="0" parent="rSt2R6uiLJbrqR5uj_X2-55">
          <mxGeometry x="0.1534" relative="1" as="geometry">
            <mxPoint x="-7" y="-11" as="offset" />
          </mxGeometry>
        </mxCell>
        <mxCell id="rSt2R6uiLJbrqR5uj_X2-31" value="VictoriaMetrics Engine" style="rounded=0;whiteSpace=wrap;html=1;strokeColor=#3700CC;fillColor=#6a00ff;verticalAlign=middle;strokeWidth=1;fontColor=#ffffff;" vertex="1" parent="1">
          <mxGeometry x="376" y="-15" width="120" height="76" as="geometry" />
        </mxCell>
        <mxCell id="rSt2R6uiLJbrqR5uj_X2-33" value="OpenTSDB" style="shape=cylinder3;whiteSpace=wrap;html=1;boundedLbl=1;backgroundOutline=1;size=15;fillColor=#6a00ff;fontColor=#ffffff;strokeColor=#3700CC;" vertex="1" parent="1">
          <mxGeometry x="391" y="74" width="90" height="48" as="geometry" />
        </mxCell>
        <mxCell id="rSt2R6uiLJbrqR5uj_X2-38" value="Application" style="rounded=0;whiteSpace=wrap;html=1;strokeColor=#d79b00;fillColor=#ffe6cc;strokeWidth=0;" vertex="1" parent="1">
          <mxGeometry x="78" y="-240" width="130" height="44" as="geometry" />
        </mxCell>
        <mxCell id="rSt2R6uiLJbrqR5uj_X2-51" style="edgeStyle=orthogonalEdgeStyle;rounded=0;orthogonalLoop=1;jettySize=auto;html=1;entryX=-0.005;entryY=0.112;entryDx=0;entryDy=0;entryPerimeter=0;startArrow=classic;startFill=1;endArrow=none;endFill=0;exitX=1;exitY=0.5;exitDx=0;exitDy=0;" edge="1" parent="1" source="rSt2R6uiLJbrqR5uj_X2-45" target="rSt2R6uiLJbrqR5uj_X2-28">
          <mxGeometry relative="1" as="geometry" />
        </mxCell>
        <mxCell id="rSt2R6uiLJbrqR5uj_X2-52" value="Data Query" style="edgeLabel;html=1;align=center;verticalAlign=middle;resizable=0;points=[];" vertex="1" connectable="0" parent="rSt2R6uiLJbrqR5uj_X2-51">
          <mxGeometry x="-0.2465" y="2" relative="1" as="geometry">
            <mxPoint x="9" y="-8" as="offset" />
          </mxGeometry>
        </mxCell>
        <mxCell id="rSt2R6uiLJbrqR5uj_X2-45" value="Jaeger Query Egine" style="rounded=0;whiteSpace=wrap;html=1;strokeColor=#2D7600;fillColor=#60a917;verticalAlign=middle;strokeWidth=1;fontColor=#ffffff;" vertex="1" parent="1">
          <mxGeometry x="381" y="-282" width="120" height="76" as="geometry" />
        </mxCell>
      </root>
    </mxGraphModel>
  </diagram>
</mxfile>
